<svg width="200" height="192" viewBox="0 0 200 192" fill="none" xmlns="http://www.w3.org/2000/svg">
<path d="M114.888 153.654L77.9932 123.473" stroke="#E3E3FD" stroke-width="0.779855"/>
<path d="M77.9933 123.473L199.109 1.35574C199.126 1.33695 199.136 1.3128 199.137 1.28743C199.138 1.26207 199.131 1.23708 199.115 1.21677C199.1 1.19645 199.078 1.18209 199.054 1.17614C199.029 1.17019 199.003 1.17303 198.98 1.18417L33.5923 93.8036" stroke="#DDE5FF" stroke-width="0.779855"/>
<path d="M77.9932 123.473L55.046 190.646C55.0044 190.766 54.994 190.888 55.0148 191.013L55.0694 191.371" stroke="#BCCDFF" stroke-width="0.779855"/>
<path d="M114.888 153.654L77.9933 123.473L199.109 1.35562C199.126 1.33684 199.136 1.31269 199.137 1.28732C199.138 1.26196 199.13 1.23697 199.115 1.21666C199.1 1.19634 199.078 1.18198 199.053 1.17603C199.029 1.17008 199.003 1.17292 198.98 1.18406L33.5923 93.8035C23.2332 85.3317 12.9378 76.9132 2.7061 68.5479C1.20098 67.3184 0.298944 65.8626 0 64.1807V62.7731C0.725265 58.4137 3.68092 57.7859 7.33844 56.7253C71.4009 38.1024 135.424 19.4925 199.409 0.89551C199.555 0.853918 199.61 0.907208 199.577 1.05538C185.96 60.0878 172.353 119.085 158.755 178.047C158.003 181.319 154.524 183.58 151.222 182.66C150.356 182.418 149.258 181.753 147.927 180.664C136.907 171.643 125.895 162.64 114.888 153.654Z" fill="#DDE5FF"/>
<path d="M77.9933 123.473L55.0461 190.646C55.0045 190.766 54.9941 190.888 55.0149 191.013L55.0695 191.371C54.8407 191.686 54.6523 191.503 54.5041 190.822C47.527 158.387 40.5564 126.048 33.5923 93.8036L198.98 1.18417C199.003 1.17303 199.029 1.17019 199.054 1.17614C199.078 1.18209 199.1 1.19645 199.115 1.21677C199.131 1.23708 199.138 1.26207 199.137 1.28743C199.136 1.3128 199.126 1.33695 199.109 1.35574L77.9933 123.473Z" fill="#ACBEF3"/>
<path d="M77.9932 123.473L114.888 153.654L55.0694 191.371L55.0148 191.012C54.994 190.888 55.0044 190.766 55.046 190.646L77.9932 123.473Z" fill="#BCCDFF"/>
</svg>
