<svg width="32" height="32" viewBox="0 0 32 32" fill="none" xmlns="http://www.w3.org/2000/svg">
<circle cx="16" cy="16" r="15" stroke="#929292" stroke-width="2" stroke-dasharray="3 3"/>
<path fill-rule="evenodd" clip-rule="evenodd" d="M19.5 15H20C20.2761 15 20.5 15.2239 20.5 15.5V20.5C20.5 20.7761 20.2761 21 20 21H12C11.7239 21 11.5 20.7761 11.5 20.5V15.5C11.5 15.2239 11.7239 15 12 15H12.5V14.5C12.5 13.2496 13.1671 12.0941 14.25 11.4689C15.3329 10.8437 16.6671 10.8437 17.75 11.4689C18.8329 12.0941 19.5 13.2496 19.5 14.5V15ZM18.5 15V14.5C18.5 13.1193 17.3807 12 16 12C14.6193 12 13.5 13.1193 13.5 14.5V15H18.5ZM15.5 17V19H16.5V17H15.5Z" fill="#929292"/>
</svg>
