<svg width="232" height="232" viewBox="0 0 232 232" fill="none" xmlns="http://www.w3.org/2000/svg">
<path d="M57.9189 16.5198C57.912 24.031 57.912 31.5301 57.9189 39.0172C57.9189 41.3819 57.7776 43.002 57.4949 43.8776C55.1165 51.1837 44.8786 51.4319 42.0917 44.7152C41.5849 43.495 41.3385 41.3819 41.3523 38.376C41.3902 31.0855 41.3815 23.7983 41.3264 16.5146C41.3988 12.9986 40.9024 8.0193 41.9417 5.21682C44.4339 -1.48948 54.4236 -1.80489 57.2209 4.93244C58.4308 7.85384 57.9241 13.0296 57.9189 16.5198Z" fill="#FDDEDE"/>
<path d="M124.103 16.5198C124.096 24.031 124.096 31.5301 124.103 39.0172C124.103 41.3819 123.962 43.002 123.679 43.8775C121.3 51.1836 111.063 51.4318 108.276 44.7152C107.769 43.4949 107.522 41.3819 107.536 38.376C107.574 31.0854 107.566 23.8 107.51 16.5198C107.588 13.1278 107.143 8.39671 107.96 5.70281C110.096 -1.35509 120.499 -2.07381 123.405 4.93239C124.615 7.85379 124.108 13.0296 124.103 16.5198Z" fill="#FDDEDE"/>
<path d="M190.292 16.5304C190.264 23.7072 190.268 30.8806 190.302 38.0505C190.316 41.0978 190.071 43.2608 189.568 44.5397C186.952 51.1839 177.231 51.2925 174.444 44.6017C173.944 43.3987 173.703 41.3701 173.72 38.5159C173.758 31.1736 173.749 23.8417 173.694 16.52C173.823 10.9978 172.288 3.98128 178.249 0.873736C182.298 -1.23071 187.81 0.599692 189.589 4.93268C190.799 7.85925 190.287 13.0247 190.292 16.5304Z" fill="#FDDEDE"/>
<path d="M41.3266 16.5146C41.3817 23.7983 41.3904 31.0855 41.3524 38.3761C41.3387 41.3819 41.5851 43.495 42.0918 44.7152C44.8788 51.4319 55.1167 51.1837 57.4951 43.8776C57.7778 43.002 57.9191 41.3819 57.9191 39.0172C57.9122 31.5301 57.9122 24.031 57.9191 16.5198H107.511C107.566 23.8001 107.574 31.0855 107.536 38.3761C107.523 41.3819 107.769 43.495 108.276 44.7152C111.063 51.4319 121.301 51.1837 123.679 43.8776C123.962 43.002 124.103 41.3819 124.103 39.0172C124.096 31.5301 124.096 24.031 124.103 16.5198H173.695C173.75 23.8414 173.758 31.1734 173.72 38.5157C173.703 41.3698 173.945 43.3985 174.444 44.6015C177.231 51.2923 186.952 51.1837 189.568 44.5394C190.072 43.2606 190.316 41.0975 190.303 38.0503C190.268 30.8804 190.265 23.707 190.292 16.5302C196.077 16.506 201.847 16.5112 207.604 16.5457C218.886 16.6077 228.798 25.3357 231.052 36.2044C231.445 38.0968 231.644 41.5336 231.647 46.5146C231.65 58.5898 231.649 70.6545 231.642 82.709L0.00295477 82.7038C-0.0039394 68.912 0.00123059 55.2099 0.018466 41.5974C0.0288073 29.9221 7.77957 19.8859 19.186 17.2334C21.2749 16.7473 24.703 16.5095 29.4703 16.5198C33.3897 16.5267 37.3418 16.525 41.3266 16.5146Z" fill="#FF5655"/>
<path d="M0.00270033 82.7036L231.642 82.7088C231.655 123.998 231.648 165.275 231.621 206.54C231.611 218.127 223.984 228.107 212.702 230.868C210.682 231.364 207.564 231.612 203.348 231.612C143.968 231.619 84.589 231.618 25.2095 231.607C13.2809 231.607 2.95513 223.572 0.571468 211.804C0.195736 209.942 0.00787009 206.507 0.00787009 201.499C0.00097592 161.816 -0.000746754 122.218 0.00270033 82.7036Z" fill="#F5F5FE"/>
</svg>
