<?xml version="1.0" encoding="UTF-8" standalone="no"?>
<svg
   width="20"
   height="20"
   viewBox="0 0 20 20"
   fill="none"
   version="1.1"
   id="svg16"
   sodipodi:docname="success.svg"
   inkscape:version="1.1.2 (0a00cf5339, 2022-02-04)"
   xmlns:inkscape="http://www.inkscape.org/namespaces/inkscape"
   xmlns:sodipodi="http://sodipodi.sourceforge.net/DTD/sodipodi-0.dtd"
   xmlns="http://www.w3.org/2000/svg"
   xmlns:svg="http://www.w3.org/2000/svg">
  <defs
     id="defs20" />
  <sodipodi:namedview
     id="namedview18"
     pagecolor="#505050"
     bordercolor="#ffffff"
     borderopacity="1"
     inkscape:pageshadow="0"
     inkscape:pageopacity="0"
     inkscape:pagecheckerboard="1"
     showgrid="false"
     inkscape:zoom="16"
     inkscape:cx="8.90625"
     inkscape:cy="19.34375"
     inkscape:window-width="1920"
     inkscape:window-height="1012"
     inkscape:window-x="0"
     inkscape:window-y="44"
     inkscape:window-maximized="1"
     inkscape:current-layer="svg16" />
  <path
     fill-rule="evenodd"
     clip-rule="evenodd"
     d="M17 3.25C16.8621 3.25 16.75 3.13785 16.75 3C16.75 2.86214 16.8621 2.75 17 2.75C17.1379 2.75 17.25 2.86214 17.25 3C17.25 3.13785 17.1379 3.25 17 3.25Z"
     fill="#CACAFB"
     id="path2" />
  <path
     fill-rule="evenodd"
     clip-rule="evenodd"
     d="M10.25 19C10.1121 19 10 18.8879 10 18.75C10 18.6121 10.1121 18.5 10.25 18.5C10.3879 18.5 10.5 18.6121 10.5 18.75C10.5 18.8879 10.3879 19 10.25 19Z"
     fill="#CACAFB"
     id="path4" />
  <path
     fill-rule="evenodd"
     clip-rule="evenodd"
     d="M3.75 2.5C3.61215 2.5 3.5 2.38785 3.5 2.25C3.5 2.11214 3.61215 2 3.75 2C3.88785 2 4 2.11214 4 2.25C4 2.38785 3.88785 2.5 3.75 2.5Z"
     fill="#CACAFB"
     id="path6" />
  <path
     fill-rule="evenodd"
     clip-rule="evenodd"
     d="M9.33475 11.6448L7.73921 9.75865L7.70859 9.72571C7.51792 9.54149 7.22869 9.53813 7.03834 9.71589C6.83744 9.90351 6.8195 10.2239 6.99764 10.4344L9.04665 12.8562C9.05971 12.8717 9.07399 12.886 9.08937 12.8992C9.24684 13.0337 9.48355 13.0151 9.61807 12.8576L14.0008 7.72679L14.0285 7.69115C14.1781 7.47597 14.1497 7.18369 13.9634 7.00805C13.7599 6.81615 13.4445 6.83406 13.2623 7.04736L9.33475 11.6448Z"
     fill="#E1000F"
     id="path8" />
  <path
     d="M2.86014 11.2589C2.16484 7.3157 4.79781 3.55543 8.74104 2.86013C11.2463 2.41839 13.7573 3.31703 15.4184 5.18154C15.5103 5.28463 15.5011 5.44266 15.398 5.53451C15.295 5.62636 15.1369 5.61724 15.0451 5.51415C13.4981 3.77776 11.1606 2.94121 8.82787 3.35253C5.15658 3.99988 2.70519 7.50083 3.35254 11.1721C3.99989 14.8434 7.50083 17.2948 11.1721 16.6474C14.8434 16.0001 17.2948 12.4991 16.6474 8.82786C16.6235 8.69189 16.7143 8.56222 16.8502 8.53825C16.9862 8.51427 17.1159 8.60506 17.1398 8.74104C17.8351 12.6843 15.2022 16.4445 11.2589 17.1398C7.31571 17.8351 3.55543 15.2022 2.86014 11.2589Z"
     fill="#000091"
     id="path10" />
  <path
     d="M17.556 11.7311C17.5867 11.5965 17.7207 11.5122 17.8553 11.5429C17.9899 11.5736 18.0742 11.7077 18.0435 11.8423C17.7072 13.3163 16.9706 14.6626 15.9232 15.7427C15.8271 15.8418 15.6688 15.8442 15.5697 15.7481C15.4706 15.652 15.4681 15.4937 15.5642 15.3946C16.5483 14.3798 17.2402 13.1153 17.556 11.7311Z"
     fill="#000091"
     id="path12" />
  <path
     d="M18 10.5C17.8619 10.5 17.75 10.6119 17.75 10.75C17.75 10.8881 17.8619 11 18 11C18.1381 11 18.25 10.8881 18.25 10.75C18.25 10.6119 18.1381 10.5 18 10.5Z"
     fill="#000091"
     id="path14" />
</svg>
