<svg width="206" height="208" viewBox="0 0 206 208" fill="none" xmlns="http://www.w3.org/2000/svg">
<path d="M186.132 40.4961L193.872 40.5706C193.991 40.7841 194.086 40.9952 194.156 41.2037C194.221 41.3974 194.253 41.6581 194.253 41.9858C194.298 86.6038 194.303 131.252 194.269 175.929L184.475 175.966L184.467 40.6227L186.132 40.4961Z" fill="#0078F3"/>
<path d="M193.774 40.4961L204.628 40.6005L204.632 175.884L194.176 175.966C194.211 131.252 194.205 86.5674 194.161 41.9125C194.161 41.5845 194.128 41.3236 194.062 41.1298C193.991 40.921 193.895 40.7098 193.774 40.4961Z" fill="#0063CB"/>
<path d="M17.9066 0.682129H19.9623C29.5435 1.70595 36.5853 8.56234 36.8675 18.458C36.8675 18.5198 36.8957 18.5654 36.9521 18.595C37.0462 18.6461 37.0865 18.6501 37.0731 18.6071C36.9656 18.7307 36.9118 18.8355 36.9118 18.9215C36.9226 74.3504 36.9024 129.875 36.8514 185.494C33.9546 176.772 28.3598 171.987 20.0671 171.141C18.1592 170.947 16.2983 171.098 14.4845 171.592C7.73691 173.43 3.32453 177.899 1.24732 184.998C1.336 185.149 1.22717 185.242 0.92083 185.277C0.904707 130.702 0.906051 76.1266 0.924861 21.5496C0.927548 18.0643 1.12909 15.5571 1.52948 14.0281C3.51263 6.48648 10.1272 1.31496 17.9066 0.682129Z" fill="#E3E3FD"/>
<path d="M150.274 18.5994C152.346 20.0451 153.383 21.6977 153.386 23.5572C153.404 77.1319 153.407 130.708 153.394 184.285C153.394 185.704 152.854 186.991 151.773 188.147C151.695 188.23 151.698 188.312 151.781 188.393C151.951 188.559 151.916 188.781 151.677 189.058H37.21C37.0756 189.058 36.995 188.992 36.9681 188.86C36.7075 187.632 36.6685 186.51 36.8512 185.495C36.9023 129.875 36.9225 74.3507 36.9117 18.9218C36.9117 18.8358 36.9654 18.731 37.0729 18.6074L150.274 18.5994ZM138.472 41.7402C138.472 40.9234 138.147 40.1401 137.57 39.5626C136.992 38.9851 136.209 38.6607 135.392 38.6607H73.2614C72.857 38.6607 72.4566 38.7403 72.083 38.8951C71.7093 39.0498 71.3699 39.2767 71.0839 39.5626C70.7979 39.8486 70.5711 40.1881 70.4163 40.5617C70.2616 40.9353 70.1819 41.3358 70.1819 41.7402V41.8208C70.1819 42.2252 70.2616 42.6257 70.4163 42.9993C70.5711 43.3729 70.7979 43.7124 71.0839 43.9984C71.3699 44.2843 71.7093 44.5112 72.083 44.6659C72.4566 44.8207 72.857 44.9003 73.2614 44.9003H135.392C136.209 44.9003 136.992 44.5759 137.57 43.9984C138.147 43.4208 138.472 42.6375 138.472 41.8208V41.7402ZM152.06 66.5296C152.06 65.7107 151.734 64.9254 151.155 64.3463C150.576 63.7673 149.791 63.442 148.972 63.442H59.6736C58.8547 63.442 58.0694 63.7673 57.4904 64.3463C56.9113 64.9254 56.586 65.7107 56.586 66.5296V66.586C56.586 67.4049 56.9113 68.1902 57.4904 68.7693C58.0694 69.3483 58.8547 69.6736 59.6736 69.6736H148.972C149.791 69.6736 150.576 69.3483 151.155 68.7693C151.734 68.1902 152.06 67.4049 152.06 66.586V66.5296ZM152.06 89.6301C152.06 88.8102 151.734 88.0238 151.154 87.444C150.574 86.8642 149.788 86.5385 148.968 86.5385H59.6777C58.8577 86.5385 58.0713 86.8642 57.4915 87.444C56.9118 88.0238 56.586 88.8102 56.586 89.6301V89.6865C56.586 90.5065 56.9118 91.2928 57.4915 91.8726C58.0713 92.4524 58.8577 92.7782 59.6777 92.7782H148.968C149.788 92.7782 150.574 92.4524 151.154 91.8726C151.734 91.2928 152.06 90.5065 152.06 89.6865V89.6301ZM152.06 114.093C152.06 113.688 151.98 113.287 151.825 112.913C151.67 112.539 151.443 112.199 151.156 111.913C150.87 111.626 150.53 111.399 150.156 111.244C149.782 111.089 149.381 111.009 148.976 111.009H59.6696C59.2647 111.009 58.8637 111.089 58.4896 111.244C58.1154 111.399 57.7755 111.626 57.4892 111.913C57.2029 112.199 56.9757 112.539 56.8208 112.913C56.6658 113.287 56.586 113.688 56.586 114.093V114.149C56.586 114.967 56.9109 115.752 57.4892 116.33C58.0675 116.908 58.8518 117.233 59.6696 117.233H148.976C149.794 117.233 150.578 116.908 151.156 116.33C151.735 115.752 152.06 114.967 152.06 114.149V114.093ZM152.064 138.524C152.064 137.705 151.738 136.919 151.159 136.34C150.58 135.761 149.795 135.436 148.976 135.436H59.6696C58.8507 135.436 58.0654 135.761 57.4863 136.34C56.9073 136.919 56.582 137.705 56.582 138.524V138.58C56.582 139.399 56.9073 140.184 57.4863 140.763C58.0654 141.342 58.8507 141.668 59.6696 141.668H148.976C149.795 141.668 150.58 141.342 151.159 140.763C151.738 140.184 152.064 139.399 152.064 138.58V138.524ZM152.06 162.991C152.06 162.171 151.734 161.384 151.154 160.805C150.574 160.225 149.788 159.899 148.968 159.899H59.6777C58.8577 159.899 58.0713 160.225 57.4915 160.805C56.9118 161.384 56.586 162.171 56.586 162.991V163.047C56.586 163.867 56.9118 164.653 57.4915 165.233C58.0713 165.813 58.8577 166.139 59.6777 166.139H148.968C149.788 166.139 150.574 165.813 151.154 165.233C151.734 164.653 152.06 163.867 152.06 163.047V162.991Z" fill="#F5F5FE"/>
<path d="M150.274 18.5991C154.487 18.5937 158.662 18.5964 162.798 18.6072C165.853 18.6112 168.066 18.72 169.388 21.3804C169.732 22.079 169.904 23.0921 169.904 24.4196C169.901 77.0726 169.903 129.724 169.908 182.374C169.908 184.347 169.709 185.723 169.311 186.502C168.259 188.558 166.409 189.086 164.055 189.102C160.616 189.126 157.189 189.144 153.777 189.154L151.677 189.058C151.916 188.781 151.951 188.559 151.781 188.392C151.698 188.312 151.695 188.23 151.773 188.147C152.854 186.991 153.394 185.704 153.394 184.285C153.407 130.708 153.405 77.1317 153.386 23.557C153.383 21.6975 152.346 20.0448 150.274 18.5991Z" fill="#ECECFE"/>
<path d="M202.463 40.6019L193.724 40.6664L187.121 40.6744C187.043 37.5868 187.031 34.5463 187.085 31.5527C187.115 29.9297 187.339 28.7473 187.758 28.0056C189.5 24.918 193.039 25.563 195.949 25.5468C198.722 25.5307 200.975 25.8894 202.043 28.5417C202.331 29.2619 202.475 30.4684 202.475 32.1614C202.472 34.9292 202.468 37.7427 202.463 40.6019Z" fill="#0078F3"/>
<path d="M135.392 38.6606H73.2617C71.5609 38.6606 70.1821 40.0394 70.1821 41.7402V41.8208C70.1821 43.5216 71.5609 44.9003 73.2617 44.9003H135.392C137.093 44.9003 138.472 43.5216 138.472 41.8208V41.7402C138.472 40.0394 137.093 38.6606 135.392 38.6606Z" fill="#CACAFB"/>
<path d="M184.314 51.8896L193.754 51.942C193.832 52.1006 194.016 52.1611 194.306 52.1234C194.427 52.1073 194.488 52.1597 194.488 52.2806V102.061C194.488 102.15 194.452 102.235 194.39 102.298C194.327 102.36 194.242 102.396 194.153 102.396L186.039 102.408L184.314 102.476V51.8896Z" fill="#D64D00"/>
<path d="M194.512 51.8695L205.145 51.8655V102.504L194.056 102.448L186.039 102.408L194.153 102.396C194.242 102.396 194.327 102.36 194.39 102.298C194.452 102.235 194.488 102.15 194.488 102.061V52.2806C194.488 52.1597 194.427 52.1073 194.306 52.1234C194.016 52.1611 193.832 52.1006 193.754 51.9421L194.512 51.8695Z" fill="#FF732C"/>
<path d="M148.972 63.4421H59.674C57.9688 63.4421 56.5864 64.8245 56.5864 66.5297V66.5862C56.5864 68.2914 57.9688 69.6738 59.674 69.6738H148.972C150.678 69.6738 152.06 68.2914 152.06 66.5862V66.5297C152.06 64.8245 150.678 63.4421 148.972 63.4421Z" fill="#CACAFB"/>
<path d="M148.968 86.5386H59.678C57.9706 86.5386 56.5864 87.9227 56.5864 89.6302V89.6866C56.5864 91.3941 57.9706 92.7782 59.678 92.7782H148.968C150.676 92.7782 152.06 91.3941 152.06 89.6866V89.6302C152.06 87.9227 150.676 86.5386 148.968 86.5386Z" fill="#CACAFB"/>
<path d="M148.976 111.009H59.67C57.967 111.009 56.5864 112.39 56.5864 114.093V114.149C56.5864 115.852 57.967 117.233 59.67 117.233H148.976C150.679 117.233 152.06 115.852 152.06 114.149V114.093C152.06 112.39 150.679 111.009 148.976 111.009Z" fill="#CACAFB"/>
<path d="M148.976 135.436H59.6696C57.9644 135.436 56.582 136.818 56.582 138.524V138.58C56.582 140.285 57.9644 141.668 59.6696 141.668H148.976C150.681 141.668 152.064 140.285 152.064 138.58V138.524C152.064 136.818 150.681 135.436 148.976 135.436Z" fill="#CACAFB"/>
<path d="M148.968 159.899H59.678C57.9706 159.899 56.5864 161.283 56.5864 162.991V163.047C56.5864 164.754 57.9706 166.139 59.678 166.139H148.968C150.676 166.139 152.06 164.754 152.06 163.047V162.991C152.06 161.283 150.676 159.899 148.968 159.899Z" fill="#CACAFB"/>
<path d="M36.8515 185.495C36.6688 186.51 36.7078 187.632 36.9684 188.86C36.9953 188.992 37.0759 189.058 37.2103 189.058H151.677L153.777 189.155C153.78 193.403 153.777 197.524 153.769 201.517C153.764 204.65 152.24 206.498 149.198 207.059H17.8423C8.09581 206.052 1.14672 198.921 0.945177 189.122C0.920992 187.841 0.91293 186.559 0.920992 185.277C1.22733 185.242 1.33616 185.149 1.24749 184.999C3.32469 177.899 7.73707 173.43 14.4846 171.592C16.2985 171.098 18.1594 170.947 20.0673 171.141C28.36 171.987 33.9547 176.772 36.8515 185.495Z" fill="#CACAFB"/>
<path d="M205.149 175.651C201.113 183.132 198.057 188.728 195.979 192.439C195.347 193.564 193.827 193.354 193.21 192.198C190.295 186.732 187.332 181.238 184.322 175.716L194.468 175.695L205.149 175.651Z" fill="#1B1B35"/>
</svg>
