<svg width="220" height="221" viewBox="0 0 220 221" fill="none" xmlns="http://www.w3.org/2000/svg">
<path d="M176.602 0.267121C177.173 0.580216 177.758 0.865953 178.357 1.12433C181.038 2.2916 182.985 4.22488 184.025 6.91051C184.478 8.08994 184.712 9.90619 184.727 12.3593C184.751 16.0526 184.745 19.7656 184.709 23.4985H103.675C103.669 19.7778 103.667 16.0693 103.67 12.373C103.674 10.2086 103.879 8.5307 104.286 7.33912C105.386 4.12305 107.508 1.98762 110.651 0.932827C111.974 0.485983 114.106 0.264081 117.048 0.267121C136.907 0.288399 156.758 0.288399 176.602 0.267121Z" fill="#E2CF58"/>
<path d="M176.602 0.26718C182.815 0.239822 189.03 0.232222 195.246 0.244381C197.097 0.247421 198.568 0.448045 199.66 0.846253C202.687 1.95272 204.776 4.01064 205.925 7.02C206.359 8.15991 206.593 9.7117 206.627 11.6754C206.691 15.5693 206.692 19.483 206.631 23.4164C201.187 23.5107 195.782 23.5335 190.417 23.4848C189.685 23.4788 188.847 23.5912 187.905 23.8223L184.709 23.4985C184.745 19.7657 184.751 16.0526 184.727 12.3593C184.712 9.90625 184.478 8.08999 184.025 6.91057C182.985 4.22494 181.038 2.29166 178.357 1.12439C177.758 0.866012 177.173 0.580275 176.602 0.26718Z" fill="#D8C634"/>
<path d="M206.631 23.416C214.561 24.3097 219.941 29.7448 219.941 37.7834C219.941 78.96 219.932 120.137 219.914 161.313C219.914 163.009 219.57 164.632 218.883 166.183C216.312 171.992 211.801 174.917 205.35 174.96C199.237 175.003 192.98 174.998 186.578 174.946C194.281 172.66 198.131 167.736 198.128 160.173C198.116 121.137 198.114 82.0985 198.123 43.0589C198.123 40.9752 198.365 36.5934 197.845 34.5461C196.523 29.342 193.209 25.7673 187.905 23.8218C188.847 23.5908 189.685 23.4783 190.417 23.4844C195.783 23.533 201.187 23.5102 206.631 23.416Z" fill="#E2CF58"/>
<path d="M103.675 23.4985H184.709L187.905 23.8222C193.209 25.7676 196.523 29.3424 197.845 34.5465C198.365 36.5937 198.123 40.9755 198.123 43.0593C198.114 82.0989 198.116 121.137 198.128 160.174C198.131 167.736 194.281 172.661 186.578 174.947L159.489 174.942L159.485 154.469C159.485 154.311 159.564 154.232 159.722 154.232C162.4 154.241 165.077 154.24 167.751 154.228C169.405 154.222 170.586 154.065 171.294 153.758C173.82 152.659 174.81 148.834 173.187 146.741C164.198 135.187 155.206 123.636 146.212 112.088C146.197 112.069 145.958 111.75 145.496 111.13C143.348 108.258 139.86 107.847 137.512 110.688C136.22 112.253 135.092 113.714 134.129 115.07C126.107 125.387 118.193 135.576 110.387 145.637C109.496 146.786 108.966 147.689 108.795 148.346C108.271 150.389 109.379 152.741 111.299 153.667C111.91 153.965 112.819 154.115 114.025 154.118C116.977 154.134 119.947 154.14 122.935 154.137C123.099 154.137 123.181 154.219 123.181 154.383L123.208 174.938L108.832 174.965C107.801 174.697 106.993 174.562 106.406 174.559C103.33 174.541 100.238 174.549 97.1319 174.582C97.0042 174.582 96.9404 174.518 96.9404 174.39C96.9404 154.331 96.9404 134.263 96.9404 114.185C96.9404 111.18 96.4889 108.855 93.0692 108.777C91.2636 108.738 87.7664 108.744 82.5775 108.796C73.1634 108.738 67.0839 108.744 64.339 108.814C61.4846 108.882 60.7049 111.016 60.7049 113.633C60.6989 133.896 60.6973 154.134 60.7004 174.345C60.7004 174.434 60.6656 174.52 60.6035 174.584C60.5413 174.647 60.4566 174.684 60.3675 174.687L49.1782 174.887C37.7001 174.948 26.2265 174.971 14.7575 174.956C6.18993 174.942 0.189453 168.805 0.189453 160.174C0.195533 120.274 0.198572 80.3723 0.198572 40.4694C0.198572 37.0619 0.414395 34.6604 0.84604 33.2652C2.21393 28.8378 5.97107 25.222 10.4623 24C11.6934 23.6626 13.7361 23.4939 16.5905 23.4939C45.6201 23.5 74.6483 23.5015 103.675 23.4985Z" fill="#FFE552"/>
<path d="M82.5777 108.795L82.5868 174.404C82.5868 174.565 82.6674 174.646 82.8285 174.646C85.5916 174.664 88.3532 174.67 91.1133 174.664C92.694 174.658 93.8233 174.802 94.5011 175.097C96.8721 176.127 97.9984 179.866 96.48 181.822C88.2058 192.474 79.9225 203.111 71.63 213.735C63.9242 203.817 56.226 193.904 48.5355 183.997C47.1676 182.237 46.4 180.871 46.2328 179.898C45.8863 177.889 46.8681 176.219 49.1784 174.887L60.3677 174.687C60.4568 174.684 60.5415 174.647 60.6036 174.583C60.6658 174.519 60.7006 174.434 60.7006 174.345C60.6975 154.133 60.699 133.896 60.7051 113.633C60.7051 111.016 61.4848 108.882 64.3392 108.814C67.0841 108.744 73.1636 108.738 82.5777 108.795Z" fill="#518FFF"/>
<path d="M108.832 174.965C110.89 176.391 111.752 178.075 111.417 180.017C111.256 180.956 110.554 182.224 109.311 183.82C100.684 194.9 92.0601 205.977 83.4393 217.05C78.3006 223.648 74.6347 218.086 71.6299 213.736C79.9223 203.112 88.2057 192.474 96.4799 181.823C97.9983 179.867 96.872 176.128 94.501 175.097C93.8232 174.802 92.6939 174.658 91.1132 174.664C88.3531 174.67 85.5915 174.664 82.8283 174.646C82.6672 174.646 82.5867 174.565 82.5867 174.404L82.5776 108.796C87.7664 108.744 91.2637 108.738 93.0693 108.777C96.489 108.855 96.9404 111.18 96.9404 114.185C96.9404 134.263 96.9404 154.331 96.9404 174.391C96.9404 174.518 97.0043 174.582 97.1319 174.582C100.239 174.549 103.33 174.541 106.406 174.559C106.993 174.562 107.801 174.698 108.832 174.965Z" fill="#0078F3"/>
<path d="M159.49 174.942C159.499 188.676 159.502 202.371 159.499 216.029C159.499 217.588 158.941 218.713 157.825 219.403C157.157 219.819 156.05 220.028 154.506 220.028C151.384 220.025 148.261 220.015 145.136 220L145.14 154.378C145.14 154.214 145.221 154.132 145.382 154.132C148.388 154.129 151.392 154.164 154.392 154.237C156.717 154.291 158.301 153.408 159.143 151.588C160.003 149.733 159.917 148.142 158.883 146.814C150.688 136.263 142.437 125.681 134.129 115.069C135.093 113.714 136.22 112.253 137.512 110.688C139.86 107.847 143.348 108.257 145.496 111.13C145.958 111.75 146.197 112.069 146.212 112.087C155.207 123.635 164.198 135.187 173.187 146.741C174.81 148.834 173.821 152.659 171.294 153.758C170.586 154.065 169.405 154.221 167.752 154.228C165.077 154.24 162.4 154.241 159.722 154.232C159.564 154.232 159.485 154.311 159.485 154.469L159.49 174.942Z" fill="#3BEA7E"/>
<path d="M134.129 115.07C142.436 125.681 150.688 136.263 158.883 146.814C159.917 148.142 160.003 149.733 159.143 151.588C158.301 153.409 156.717 154.292 154.392 154.237C151.392 154.164 148.388 154.129 145.382 154.132C145.221 154.132 145.14 154.214 145.14 154.378L145.136 220C139.816 219.979 134.489 219.978 129.154 219.996C125.479 220.005 123.19 219.668 123.199 215.455C123.227 201.934 123.23 188.428 123.208 174.938L123.181 154.383C123.181 154.219 123.099 154.137 122.935 154.137C119.947 154.14 116.977 154.134 114.025 154.118C112.819 154.115 111.91 153.965 111.299 153.667C109.379 152.741 108.271 150.389 108.795 148.346C108.966 147.689 109.496 146.786 110.387 145.637C118.193 135.576 126.107 125.387 134.129 115.07Z" fill="#88FDAA"/>
</svg>
