<?xml version="1.0" standalone="no"?><svg xmlns="http://www.w3.org/2000/svg" viewBox="0 0 1440 320"><path fill="#F5F5FE" fill-opacity="1" d="M0,160L24,154.7C48,149,96,139,144,133.3C192,128,240,128,288,133.3C336,139,384,149,432,165.3C480,181,528,203,576,224C624,245,672,267,720,250.7C768,235,816,181,864,138.7C912,96,960,64,1008,48C1056,32,1104,32,1152,42.7C1200,53,1248,75,1296,85.3C1344,96,1392,96,1416,96L1440,96L1440,320L1416,320C1392,320,1344,320,1296,320C1248,320,1200,320,1152,320C1104,320,1056,320,1008,320C960,320,912,320,864,320C816,320,768,320,720,320C672,320,624,320,576,320C528,320,480,320,432,320C384,320,336,320,288,320C240,320,192,320,144,320C96,320,48,320,24,320L0,320Z"></path></svg>