<svg width="62" height="63" viewBox="0 0 62 63" fill="none" xmlns="http://www.w3.org/2000/svg">
<g id="lock">
<path id="Ic&#195;&#180;ne" fill-rule="evenodd" clip-rule="evenodd" d="M49.0853 26.2501H51.6686C53.0954 26.2501 54.252 27.4254 54.252 28.8751V55.1251C54.252 56.5749 53.0954 57.7501 51.6686 57.7501H10.3353C8.90855 57.7501 7.75195 56.5749 7.75195 55.1251V28.8751C7.75195 27.4254 8.90855 26.2501 10.3353 26.2501H12.9186V23.6251C12.9186 17.0604 16.3653 10.9943 21.9603 7.71191C27.5553 4.42953 34.4486 4.42953 40.0436 7.71191C45.6386 10.9943 49.0853 17.0604 49.0853 23.6251V26.2501ZM43.9186 26.2501V23.6251C43.9186 16.3764 38.1356 10.5001 31.002 10.5001C23.8683 10.5001 18.0853 16.3764 18.0853 23.6251V26.2501H43.9186ZM28.4186 36.7501V47.2501H33.5853V36.7501H28.4186Z" fill="#929292"/>
</g>
</svg>
