<svg width="800" height="547" viewBox="0 0 800 547" fill="none" xmlns="http://www.w3.org/2000/svg">
<rect width="800" height="547" rx="10" fill="white"/>
<path d="M672.207 466.207C672.598 465.817 672.598 465.183 672.207 464.793L665.843 458.429C665.453 458.038 664.819 458.038 664.429 458.429C664.038 458.819 664.038 459.453 664.429 459.843L670.086 465.5L664.429 471.157C664.038 471.547 664.038 472.181 664.429 472.571C664.819 472.962 665.453 472.962 665.843 472.571L672.207 466.207ZM108.207 76.2929C107.817 75.9024 107.183 75.9024 106.793 76.2929L100.429 82.6569C100.038 83.0474 100.038 83.6805 100.429 84.0711C100.819 84.4616 101.453 84.4616 101.843 84.0711L107.5 78.4142L113.157 84.0711C113.547 84.4616 114.181 84.4616 114.571 84.0711C114.962 83.6805 114.962 83.0474 114.571 82.6569L108.207 76.2929ZM111.5 466.5H671.5V464.5H111.5V466.5ZM108.5 461.5V77H106.5V461.5H108.5ZM111.5 464.5C109.843 464.5 108.5 463.157 108.5 461.5H106.5C106.5 464.261 108.739 466.5 111.5 466.5V464.5Z" fill="#000091"/>
<g clip-path="url(#clip0_915_21612)">
<rect x="131" y="78" width="104.492" height="70" fill="#0163CB"/>
<rect x="131" y="151" width="104.492" height="70" fill="#92B9FF"/>
<rect x="131" y="224" width="104.492" height="70" fill="#92B9FF"/>
<rect x="131" y="297" width="104.492" height="70" fill="#DEE9FF"/>
<rect x="131" y="370" width="104.492" height="70" fill="#DEE9FF"/>
<rect x="238.627" y="78" width="104.492" height="70" fill="#0163CB"/>
<rect x="238.627" y="151" width="104.492" height="70" fill="#0163CB"/>
<rect x="238.627" y="224" width="104.492" height="70" fill="#92B9FF"/>
<rect x="238.627" y="297" width="104.492" height="70" fill="#DEE9FF"/>
<rect x="238.627" y="370" width="104.492" height="70" fill="#DEE9FF"/>
<rect x="346.254" y="78" width="104.492" height="70" fill="#0163CB"/>
<rect x="346.254" y="151" width="104.492" height="70" fill="#0163CB"/>
<rect x="346.254" y="224" width="104.492" height="70" fill="#92B9FF"/>
<rect x="346.254" y="297" width="104.492" height="70" fill="#92B9FF"/>
<rect x="346.254" y="370" width="104.492" height="70" fill="#DEE9FF"/>
<rect x="453.881" y="78" width="104.492" height="70" fill="#0163CB"/>
<rect x="453.881" y="151" width="104.492" height="70" fill="#0163CB"/>
<rect x="453.881" y="224" width="104.492" height="70" fill="#0163CB"/>
<rect x="453.881" y="297" width="104.492" height="70" fill="#92B9FF"/>
<rect x="453.881" y="370" width="104.492" height="70" fill="#92B9FF"/>
<rect x="561.508" y="78" width="104.492" height="70" fill="#0163CB"/>
<rect x="561.508" y="151" width="104.492" height="70" fill="#0163CB"/>
<rect x="561.508" y="224" width="104.492" height="70" fill="#0163CB"/>
<rect x="561.508" y="297" width="104.492" height="70" fill="#0163CB"/>
<rect x="561.508" y="370" width="104.492" height="70" fill="#92B9FF"/>
</g>
<rect width="123" height="32" transform="translate(324 447)" fill="white"/>
<path d="M334.06 472V458H338.68C341.76 458 343.64 459.58 343.64 462.18C343.64 464.76 341.76 466.34 338.68 466.34H336.9V472H334.06ZM338.8 460.36H336.9V463.98H338.8C340 463.98 340.72 463.28 340.72 462.14C340.72 461.08 340 460.36 338.8 460.36ZM345.61 472V461.92H348.15V462.92C348.81 462.24 349.67 461.72 350.81 461.72C351.15 461.72 351.45 461.78 351.69 461.86V464.36C351.37 464.28 351.03 464.22 350.57 464.22C349.33 464.22 348.53 464.9 348.15 465.54V472H345.61ZM358.105 461.52C361.385 461.52 363.625 463.94 363.625 466.96C363.625 469.98 361.385 472.4 358.105 472.4C354.825 472.4 352.585 469.98 352.585 466.96C352.585 463.94 354.825 461.52 358.105 461.52ZM358.145 470C359.765 470 360.985 468.7 360.985 466.96C360.985 465.2 359.765 463.92 358.145 463.92C356.465 463.92 355.225 465.2 355.225 466.96C355.225 468.72 356.465 470 358.145 470ZM376.742 466.96C376.742 469.9 374.822 472.4 371.622 472.4C370.242 472.4 369.262 471.96 368.482 471.18V472H365.942V457H368.482V462.74C369.262 461.96 370.242 461.52 371.622 461.52C374.822 461.52 376.742 464.02 376.742 466.96ZM371.262 463.92C370.082 463.92 369.102 464.44 368.482 465.36V468.56C369.162 469.5 370.122 470 371.262 470C372.982 470 374.102 468.72 374.102 466.96C374.102 465.2 372.982 463.92 371.262 463.92ZM381.907 472.3C379.887 472.3 378.507 471.14 378.507 469.28C378.507 467.76 379.687 466.62 381.847 466.26L384.927 465.74V465.48C384.927 464.42 384.127 463.74 382.967 463.74C381.987 463.74 381.227 464.2 380.687 464.94L378.827 463.52C379.727 462.28 381.207 461.52 383.047 461.52C385.967 461.52 387.467 463.26 387.467 465.48V472H384.927V471.02C384.287 471.8 383.087 472.3 381.907 472.3ZM381.027 469.16C381.027 469.84 381.567 470.28 382.427 470.28C383.587 470.28 384.427 469.74 384.927 468.94V467.52L382.527 467.92C381.467 468.1 381.027 468.54 381.027 469.16ZM401.175 466.96C401.175 469.9 399.255 472.4 396.055 472.4C394.675 472.4 393.695 471.96 392.915 471.18V472H390.375V457H392.915V462.74C393.695 461.96 394.675 461.52 396.055 461.52C399.255 461.52 401.175 464.02 401.175 466.96ZM395.695 463.92C394.515 463.92 393.535 464.44 392.915 465.36V468.56C393.595 469.5 394.555 470 395.695 470C397.415 470 398.535 468.72 398.535 466.96C398.535 465.2 397.415 463.92 395.695 463.92ZM404.78 460.16C403.88 460.16 403.12 459.4 403.12 458.5C403.12 457.6 403.88 456.84 404.78 456.84C405.68 456.84 406.42 457.6 406.42 458.5C406.42 459.4 405.68 460.16 404.78 460.16ZM403.5 472V461.92H406.04V472H403.5ZM409.086 472V457H411.626V472H409.086ZM415.952 460.16C415.052 460.16 414.292 459.4 414.292 458.5C414.292 457.6 415.052 456.84 415.952 456.84C416.852 456.84 417.592 457.6 417.592 458.5C417.592 459.4 416.852 460.16 415.952 460.16ZM414.672 472V461.92H417.212V472H414.672ZM420.898 468.32V464.2H419.018V461.92H420.898V459.4H423.458V461.92H426.538V464.2H423.458V468.32C423.458 469.44 424.058 469.88 425.058 469.88C425.758 469.88 426.218 469.8 426.558 469.66V471.88C426.058 472.1 425.458 472.2 424.618 472.2C422.098 472.2 420.898 470.78 420.898 468.32ZM434.478 460.32H432.038L434.118 457H436.878L434.478 460.32ZM437.898 470.36C436.958 471.62 435.398 472.4 433.498 472.4C429.918 472.4 427.898 469.9 427.898 466.96C427.898 463.98 429.778 461.52 433.078 461.52C435.878 461.52 437.718 463.42 437.718 466.06C437.718 466.62 437.638 467.14 437.558 467.48H430.498C430.738 469.36 431.898 470.12 433.478 470.12C434.578 470.12 435.538 469.64 436.078 468.92L437.898 470.36ZM433.018 463.6C431.718 463.6 430.858 464.32 430.578 465.64H435.218C435.178 464.62 434.438 463.6 433.018 463.6Z" fill="#000091"/>
<path d="M93.4 480.66H98.8V483.12H93.4V480.66Z" fill="#000091"/>
<path d="M647.02 484.04H643.08V488H640.92V484.04H636.96V481.88H640.92V477.92H643.08V481.88H647.02V484.04Z" fill="#000091"/>
<path d="M97.02 107.04H93.08V111H90.92V107.04H86.96V104.88H90.92V100.92H93.08V104.88H97.02V107.04Z" fill="#000091"/>
<rect width="88" height="32" transform="translate(88 326) rotate(-90)" fill="white"/>
<path d="M110.74 309.5C110.74 308.18 110.28 307.04 109.52 306.24L107.08 306.24L107.08 309.8L104.66 309.8L104.66 303.4L110.54 303.4C112.28 304.7 113.4 306.88 113.4 309.5C113.4 314.04 110 317.14 106 317.14C102 317.14 98.6 314.12 98.6 309.7C98.6 307.16 99.74 305.08 101.44 303.8L103.18 306.04C102.04 306.84 101.26 308.1 101.26 309.7C101.26 312.34 103.32 314.22 106 314.22C108.68 314.22 110.74 312.24 110.74 309.5ZM113 300.582L102.92 300.582L102.92 298.042L103.92 298.042C103.24 297.382 102.72 296.522 102.72 295.382C102.72 295.042 102.78 294.742 102.86 294.502L105.36 294.502C105.28 294.822 105.22 295.162 105.22 295.622C105.22 296.862 105.9 297.662 106.54 298.042L113 298.042L113 300.582ZM113.3 290.105C113.3 292.125 112.14 293.505 110.28 293.505C108.76 293.505 107.62 292.325 107.26 290.165L106.74 287.085L106.48 287.085C105.42 287.085 104.74 287.885 104.74 289.045C104.74 290.025 105.2 290.785 105.94 291.325L104.52 293.185C103.28 292.285 102.52 290.805 102.52 288.965C102.52 286.045 104.26 284.545 106.48 284.545L113 284.545L113 287.085L112.02 287.085C112.8 287.725 113.3 288.925 113.3 290.105ZM110.16 290.985C110.84 290.985 111.28 290.445 111.28 289.585C111.28 288.425 110.74 287.585 109.94 287.085L108.52 287.085L108.92 289.485C109.1 290.545 109.54 290.985 110.16 290.985ZM102.92 283.174L102.92 280.454L110.12 277.834L102.92 275.234L102.92 272.494L113 276.174L113 279.514L102.92 283.174ZM101.16 269.614C101.16 270.514 100.4 271.274 99.5 271.274C98.6 271.274 97.84 270.514 97.84 269.614C97.84 268.714 98.6 267.974 99.5 267.974C100.4 267.974 101.16 268.714 101.16 269.614ZM113 270.894L102.92 270.894L102.92 268.354L113 268.354L113 270.894ZM109.32 264.668L105.2 264.668L105.2 266.548L102.92 266.548L102.92 264.668L100.4 264.668L100.4 262.108L102.92 262.108L102.92 259.028L105.2 259.028L105.2 262.108L109.32 262.108C110.44 262.108 110.88 261.508 110.88 260.508C110.88 259.808 110.8 259.348 110.66 259.008L112.88 259.008C113.1 259.508 113.2 260.108 113.2 260.948C113.2 263.468 111.78 264.668 109.32 264.668ZM101.32 251.089L101.32 253.529L98 251.449L98 248.689L101.32 251.089ZM111.36 247.669C112.62 248.609 113.4 250.169 113.4 252.069C113.4 255.649 110.9 257.669 107.96 257.669C104.98 257.669 102.52 255.789 102.52 252.489C102.52 249.689 104.42 247.849 107.06 247.849C107.62 247.849 108.14 247.929 108.48 248.009L108.48 255.069C110.36 254.829 111.12 253.669 111.12 252.089C111.12 250.989 110.64 250.029 109.92 249.489L111.36 247.669ZM104.6 252.549C104.6 253.849 105.32 254.709 106.64 254.989L106.64 250.349C105.62 250.389 104.6 251.129 104.6 252.549Z" fill="#000091"/>
<defs>
<clipPath id="clip0_915_21612">
<rect x="131" y="78" width="535" height="362" rx="7" fill="white"/>
</clipPath>
</defs>
</svg>
