<svg width="287" height="283" viewBox="0 0 287 283" fill="none" xmlns="http://www.w3.org/2000/svg">
<path d="M282.007 199.283L121.038 105.753L14.8891 167.038L175.829 260.596L282.007 199.283Z" fill="#76DE08"/>
<path d="M166.074 235.129L166.187 272.903L282.035 206.032L282.007 199.311L175.829 260.595C173.702 261.815 171.972 260.851 171.972 258.412L171.916 242.899C171.916 240.46 173.617 237.482 175.744 236.263L278.661 176.85L281.894 174.978L281.865 168.257L166.074 235.129Z" fill="#53CD82"/>
<path d="M175.772 236.264C173.645 237.483 171.944 240.461 171.944 242.9L172 258.412C172 260.851 173.73 261.816 175.857 260.596L278.774 201.183L278.717 176.851L175.772 236.264Z" fill="#ECECFE"/>
<path d="M166.074 235.129L5.10548 141.571L5.21889 179.346L166.187 272.875L166.074 235.129Z" fill="#409F64"/>
<path d="M281.921 168.228L120.953 74.6989L5.1048 141.57L166.073 235.128L281.921 168.228Z" fill="#3BEA7E"/>
<path d="M286.799 158.104L125.831 64.5463L19.6531 125.859L180.621 219.389L286.799 158.104Z" fill="#FFDE24"/>
<path d="M170.866 193.923L170.98 231.698L286.828 164.826L286.8 158.105L180.622 219.39C178.495 220.609 176.765 219.645 176.765 217.206L176.708 201.693C176.708 199.255 178.41 196.277 180.537 195.057L283.453 135.644L286.686 133.773L286.658 127.051L170.866 193.923Z" fill="#DEB718"/>
<path d="M180.565 195.057C178.438 196.276 176.737 199.254 176.737 201.693L176.794 217.206C176.794 219.645 178.523 220.609 180.65 219.389L283.567 159.976L283.51 135.644L180.565 195.057Z" fill="#ECECFE"/>
<path d="M170.866 193.922L9.89806 100.393L10.0115 138.139L170.98 231.697L170.866 193.922Z" fill="#F5D232"/>
<path d="M286.714 127.051L125.746 33.4929L9.89749 100.393L170.866 193.922L286.714 127.051Z" fill="#FFDE24"/>
<path d="M276.902 124.611L115.933 31.0535L9.78397 92.3666L170.752 185.896L276.902 124.611Z" fill="#6E57A5"/>
<path d="M160.969 160.43L161.082 198.205L276.931 131.333L276.902 124.612L170.725 185.897C168.598 187.116 166.868 186.152 166.868 183.713L166.811 168.201C166.811 165.762 168.513 162.784 170.639 161.564L273.556 102.151L276.789 100.28L276.761 93.5585L160.969 160.43Z" fill="#0078F3"/>
<path d="M170.668 161.564C168.541 162.784 166.839 165.762 166.839 168.201L166.896 183.713C166.896 186.152 168.626 187.116 170.753 185.897L273.669 126.484L273.613 102.151L170.668 161.564Z" fill="#ECECFE"/>
<path d="M160.968 160.429L0.000137329 66.8715L0.113541 104.646L161.082 198.204L160.968 160.429Z" fill="#518FFF"/>
<path d="M276.817 93.5578L115.848 0L6.10352e-05 66.8716L160.968 160.429L276.817 93.5578Z" fill="#9CC0FF"/>
<path d="M282.007 199.283L121.039 105.753L14.8893 167.038L175.829 260.596L282.007 199.283Z" fill="#76DE08"/>
<path d="M166.074 235.129L166.187 272.904L282.035 206.032L282.007 199.311L175.829 260.596C173.702 261.815 171.972 260.851 171.972 258.412L171.916 242.9C171.916 240.461 173.617 237.483 175.744 236.263L278.661 176.85L281.894 174.979L281.865 168.257L166.074 235.129Z" fill="#53CD82"/>
<path d="M175.772 236.263C173.645 237.483 171.944 240.461 171.944 242.9L172.001 258.412C172.001 260.851 173.731 261.815 175.857 260.596L278.774 201.183L278.717 176.85L175.772 236.263Z" fill="#ECECFE"/>
<path d="M166.074 235.129L5.10548 141.571L5.21889 179.346L166.187 272.875L166.074 235.129Z" fill="#45C274"/>
<path d="M281.921 168.228L120.953 74.6989L5.1048 141.57L166.073 235.128L281.921 168.228Z" fill="#3BEA7E"/>
<path d="M286.799 158.104L125.831 64.5463L19.6531 125.859L180.621 219.389L286.799 158.104Z" fill="#FFDE24"/>
<path d="M170.866 193.923L170.98 231.697L286.828 164.826L286.8 158.105L180.622 219.389C178.495 220.609 176.765 219.645 176.765 217.206L176.708 201.693C176.708 199.254 178.41 196.276 180.537 195.057L283.453 135.644L286.686 133.772L286.658 127.051L170.866 193.923Z" fill="#DEB718"/>
<path d="M180.565 195.057C178.438 196.276 176.737 199.254 176.737 201.693L176.794 217.206C176.794 219.645 178.523 220.609 180.65 219.389L283.567 159.976L283.51 135.644L180.565 195.057Z" fill="#ECECFE"/>
<path d="M170.866 193.922L9.89757 100.393L10.011 138.139L170.979 231.697L170.866 193.922Z" fill="#F5D232"/>
<path d="M286.714 127.05L125.746 33.4925L9.89725 100.392L170.866 193.922L286.714 127.05Z" fill="#FFDE24"/>
<path d="M276.902 124.611L115.933 31.0535L9.78397 92.3666L170.752 185.896L276.902 124.611Z" fill="#6E57A5"/>
<path d="M160.969 160.43L161.082 198.205L276.93 131.334L276.902 124.612L170.724 185.897C168.597 187.117 166.867 186.152 166.867 183.714L166.811 168.201C166.811 165.762 168.512 162.784 170.639 161.565L273.556 102.152L276.789 100.28L276.76 93.5589L160.969 160.43Z" fill="#0078F3"/>
<path d="M170.668 161.564C168.541 162.784 166.839 165.762 166.839 168.201L166.896 183.713C166.896 186.152 168.626 187.116 170.753 185.897L273.669 126.484L273.613 102.151L170.668 161.564Z" fill="#ECECFE"/>
<path d="M160.968 160.429L0.000137329 66.8715L0.113541 104.646L161.082 198.204L160.968 160.429Z" fill="#518FFF"/>
<path d="M276.817 93.5578L115.848 0L6.10352e-05 66.8716L160.968 160.429L276.817 93.5578Z" fill="#9CC0FF"/>
<path d="M106.334 61.176L118.388 63.5014L122.062 72.6201C122.08 72.6673 122.053 72.6966 121.98 72.708L104.739 75.3128C104.654 75.3259 104.6 75.305 104.577 75.2501C103.944 73.7018 103.328 72.152 102.731 70.6006C102.285 69.4406 102.046 68.5474 102.014 67.921C101.885 65.4411 103.388 62.9083 106.334 61.176Z" fill="#0974F6"/>
<path d="M106.333 61.1758L121.134 52.1455C121.193 52.1094 121.263 52.0989 121.344 52.1139L143.863 56.3932C143.894 56.3991 143.921 56.4097 143.944 56.4239C143.966 56.4381 143.983 56.4555 143.991 56.4744L146.861 62.5811C146.883 62.6296 146.866 62.671 146.81 62.7052L139.165 67.3696C139.143 67.3835 139.114 67.3934 139.084 67.3982C139.053 67.403 139.02 67.4026 138.989 67.397L118.388 63.5012L106.333 61.1758Z" fill="#518FFF"/>
<path d="M130.326 94.5279L133.417 102.317L113.508 98.5343C113.426 98.5186 113.374 98.4837 113.353 98.4294L107.57 83.9388C107.553 83.8961 107.568 83.8589 107.616 83.8271L114.472 79.2699C114.51 79.2443 114.555 79.2369 114.608 79.2475L124.914 81.2051C124.99 81.2194 125.038 81.2514 125.058 81.3012L130.326 94.5279Z" fill="#F95C5E"/>
<path d="M175.132 67.2189L166.102 72.7055L151.917 69.9984C151.852 69.9856 151.829 69.9592 151.847 69.9192L156.678 59.0232C156.68 59.017 156.685 59.0113 156.691 59.0064C156.697 59.0014 156.705 58.9974 156.714 58.9944C156.723 58.9914 156.733 58.9896 156.743 58.9891C156.753 58.9886 156.764 58.9893 156.774 58.9913C159.09 59.4332 161.408 59.8768 163.729 60.3221C165.528 60.6677 166.867 60.9876 167.745 61.2818C171.521 62.5502 173.983 64.5293 175.132 67.2189Z" fill="#27A658"/>
<path d="M175.133 67.2186L180.257 80.0579C180.27 80.0928 180.257 80.1224 180.217 80.1466L163.446 90.3794C163.421 90.3949 163.39 90.406 163.356 90.4117C163.322 90.4175 163.286 90.4177 163.252 90.4123L153.503 88.8393C153.488 88.837 153.474 88.8321 153.463 88.8251C153.452 88.8181 153.444 88.8093 153.44 88.7996L150.785 82.1402C150.766 82.0924 150.783 82.052 150.837 82.019L166.103 72.7051L175.133 67.2186Z" fill="#3BEA7E"/>
<path d="M133.416 102.317L130.326 94.5279L140.931 88.0613C140.941 88.0551 140.955 88.0517 140.969 88.0518C140.983 88.0519 140.996 88.0554 141.005 88.0617L153.502 96.3498C153.552 96.3828 153.551 96.4155 153.5 96.4479C152.179 97.2616 150.854 98.0691 149.526 98.8705C147.664 99.9939 146.633 100.607 146.432 100.711C143.872 102.033 140.9 102.702 137.515 102.717C136.137 102.723 134.771 102.589 133.416 102.317Z" fill="#C9191E"/>
<path d="M20.7511 136.385C22.0287 137.123 23.0349 136.985 23.6737 136.303L25.4623 138.923C24.4402 139.937 22.7793 140.01 20.7511 138.838C17.2218 136.799 14.8103 132.27 14.8103 128.581C14.8103 124.893 17.2218 123.151 20.7511 125.19C22.7793 126.362 24.4402 128.372 25.4623 130.531L23.6737 131.102C23.0349 129.682 22.0287 128.381 20.7511 127.643C18.6431 126.425 17.1419 127.457 17.1419 129.929C17.1419 132.4 18.6431 135.167 20.7511 136.385Z" fill="white"/>
<path d="M32.4947 131.975C36.0081 134.005 38.4196 138.534 38.4196 142.222C38.4196 145.911 36.0081 147.653 32.4947 145.623C28.9653 143.584 26.5539 139.055 26.5539 135.367C26.5539 131.678 28.9653 129.936 32.4947 131.975ZM32.4947 143.17C34.5868 144.379 36.088 143.347 36.088 140.875C36.088 138.404 34.5868 135.637 32.4947 134.428C30.3867 133.21 28.8855 134.242 28.8855 136.714C28.8855 139.185 30.3867 141.952 32.4947 143.17Z" fill="white"/>
<path d="M40.7528 150.026V137.115L43.0206 138.425V148.957L47.2686 151.411V153.791L40.7528 150.026Z" fill="white"/>
<path d="M49.424 155.036V142.125L51.6918 143.435V153.967L55.9398 156.421V158.801L49.424 155.036Z" fill="white"/>
<path d="M58.0952 160.046V147.135L64.611 150.9V153.076L60.363 150.622V153.684L63.9722 155.769V157.945L60.363 155.86V159.18L64.611 161.634V163.811L58.0952 160.046Z" fill="white"/>
<path d="M72.139 166.076C73.4166 166.814 74.4227 166.676 75.0615 165.994L76.8502 168.614C75.8281 169.628 74.1672 169.701 72.139 168.529C68.6096 166.49 66.1982 161.961 66.1982 158.272C66.1982 154.583 68.6096 152.841 72.139 154.88C74.1672 156.052 75.8281 158.063 76.8502 160.221L75.0615 160.793C74.4227 159.372 73.4166 158.072 72.139 157.334C70.031 156.116 68.5298 157.148 68.5298 159.619C68.5298 162.091 70.031 164.858 72.139 166.076Z" fill="white"/>
<path d="M77.8281 160.916V158.536L86.9948 163.833V166.212L83.5453 164.219V174.75L81.2776 173.44V162.909L77.8281 160.916Z" fill="white"/>
<path d="M89.1463 177.987V165.076L95.6621 168.84V171.017L91.414 168.562V171.624L95.0233 173.709V175.886L91.414 173.801V177.12L95.6621 179.575V181.751L89.1463 177.987Z" fill="white"/>
<path d="M98.4569 183.366V170.455L101.875 172.43C104.334 173.851 105.851 176.184 105.851 178.582C105.851 180.15 105.196 180.934 104.046 180.878L107.544 188.616L104.877 187.075L101.89 180.13L100.725 179.457V184.676L98.4569 183.366ZM102.002 174.68L100.725 173.942V177.28L102.002 178.018C102.96 178.572 103.519 178.249 103.519 177.198C103.519 176.221 102.96 175.234 102.002 174.68Z" fill="white"/>
<path d="M11.2285 99.8992V86.9884L14.6461 88.963C17.1055 90.384 18.6226 92.7176 18.6226 95.1153C18.6226 96.6831 17.9679 97.4667 16.818 97.411L20.3154 105.149L17.6485 103.608L14.6621 96.6634L13.4963 95.9898V101.209L11.2285 99.8992ZM14.7739 91.2132L13.4963 90.475V93.8134L14.7739 94.5516C15.7321 95.1052 16.291 94.7826 16.291 93.7313C16.291 92.7538 15.7321 91.7668 14.7739 91.2132Z" fill="white"/>
<path d="M26.1756 94.5178L24.1154 93.3275L25.92 91.8803L28.2517 93.2274L26.1756 94.5178ZM21.9116 106.072V93.1608L28.4273 96.9255V99.1019L24.1793 96.6475V99.7092L27.7885 101.795V103.971L24.1793 101.886V105.205L28.4273 107.66V109.836L21.9116 106.072Z" fill="white"/>
<path d="M31.2222 111.451V98.5403L35.614 101.078C39.1593 103.126 41.5548 107.48 41.5548 110.966C41.5548 114.452 39.1593 116.037 35.614 113.989L31.2222 111.451ZM35.6459 103.476L33.49 102.23V110.382L35.6459 111.628C37.722 112.827 39.2232 111.906 39.2232 109.618C39.2232 107.313 37.722 104.675 35.6459 103.476Z" fill="white"/>
<path d="M43.9015 118.777V105.866L46.1693 107.176V120.087L43.9015 118.777Z" fill="white"/>
<path d="M54.5959 122.872C55.65 123.481 56.5602 123.582 57.199 123.251V121.001L54.3564 119.358V117.126L59.4668 120.079V125.502C58.4287 126.506 56.688 126.534 54.5959 125.325C50.9707 123.23 48.4954 118.665 48.4954 114.976C48.4954 111.287 50.9069 109.545 54.4362 111.584C56.4644 112.756 58.1253 114.767 59.1474 116.925L57.3587 117.496C56.7199 116.076 55.7138 114.775 54.4362 114.037C52.3282 112.819 50.827 113.851 50.827 116.323C50.827 118.794 52.408 121.608 54.5959 122.872Z" fill="white"/>
<path d="M62.1485 129.32V116.409L68.6643 120.173V122.35L64.4162 119.895V122.957L68.0255 125.043V127.219L64.4162 125.134V128.453L68.6643 130.908V133.084L62.1485 129.32Z" fill="white"/>
<path d="M71.4591 134.699V121.788L74.8767 123.763C77.3361 125.184 78.8532 127.518 78.8532 129.915C78.8532 131.483 78.1985 132.267 77.0486 132.211L80.5461 139.949L77.8791 138.408L74.8927 131.463L73.7269 130.79V136.009L71.4591 134.699ZM75.0045 126.013L73.7269 125.275V128.613L75.0045 129.351C75.9627 129.905 76.5216 129.583 76.5216 128.531C76.5216 127.554 75.9627 126.567 75.0045 126.013Z" fill="white"/>
<path d="M9.84998 171.979L14.5528 160.35L17.8537 162.257L22.5565 179.321L19.8768 177.773L18.6878 173.356L13.7187 170.485L12.5297 173.528L9.84998 171.979ZM14.4996 168.456L17.9069 170.424L16.2033 164.05L14.4996 168.456Z" fill="white"/>
<path d="M24.6523 180.532V166.185L27.8822 168.051L33.4369 181.631V171.26L35.9569 172.716V187.063L32.727 185.197L27.1723 171.617V181.988L24.6523 180.532Z" fill="white"/>
<path d="M38.0469 188.271L42.7498 176.641L46.0507 178.548L50.7535 195.613L48.0738 194.064L46.8847 189.647L41.9157 186.776L40.7267 189.819L38.0469 188.271ZM42.6966 184.747L46.1039 186.716L44.4002 180.341L42.6966 184.747Z" fill="white"/>
<path d="M52.8493 196.823V182.476L55.3693 183.932V195.636L60.0899 198.363V201.007L52.8493 196.823Z" fill="white"/>
<path d="M71.4219 193.207L66.3109 198.494V204.601L63.7909 203.145V197.099L58.6621 185.835L61.7323 187.609L65.0509 194.937L68.3695 191.444L71.4219 193.207Z" fill="white"/>
<path d="M71.4882 205.605L73.3161 204.714C74.0614 206.251 75.0552 207.481 76.0668 208.066C77.0606 208.64 77.664 208.373 77.664 207.349C77.664 204.705 72.0206 202.161 72.0206 197.304C72.0206 195.029 73.6533 194.087 76.0313 195.461C77.8947 196.537 79.3144 198.321 80.3792 200.391L78.5336 201.251C77.806 199.745 76.9896 198.556 76.049 198.012C75.1617 197.5 74.5761 197.817 74.5761 198.678C74.5761 201.281 80.2195 203.804 80.2195 208.723C80.184 211.408 78.3738 211.981 76.0845 210.658C73.9904 209.448 72.5885 207.757 71.4882 205.605Z" fill="white"/>
<path d="M83.0393 214.267V199.92L90.2799 204.103V206.522L85.5593 203.794V207.196L89.57 209.514V211.932L85.5593 209.615V213.304L90.2799 216.032V218.45L83.0393 214.267Z" fill="white"/>
<path d="M93.3857 220.245V205.897L97.1834 208.092C99.9164 209.671 101.602 212.264 101.602 214.928C101.602 216.671 100.875 217.541 99.597 217.48L103.483 226.079L100.52 224.366L97.2012 216.649L95.9057 215.9V221.701L93.3857 220.245ZM97.3254 210.592L95.9057 209.772V213.482L97.3254 214.302C98.3902 214.917 99.0113 214.559 99.0113 213.39C99.0113 212.304 98.3902 211.207 97.3254 210.592Z" fill="white"/>
<path d="M123.175 172.052C123.175 172.052 121.462 165.063 121.854 163.796C122.155 162.019 124.078 153.9 124.597 152.597C125.29 150.838 129.108 151.658 128.552 153.508C127.212 157.982 126.711 161.153 126.447 163.996C126.073 166.539 127.54 169.646 127.641 170.43C127.841 172.134 123.822 174.777 123.175 172.052Z" fill="#FF732C"/>
<path d="M125.308 152.023L126.028 150.638C126.22 150.264 126.484 149.945 126.803 149.681C127.559 149.062 128.753 147.731 129.746 147.886C131.14 148.105 131.787 151.303 129.865 152.169L128.297 153.19L128.142 153.49C127.714 154.329 126.657 154.611 125.864 154.11C125.172 153.663 124.926 152.752 125.308 152.023Z" fill="#CA795C"/>
<path d="M117.562 273.777L119.376 272.975L120.232 264.692L118.41 265.484L117.562 273.777Z" fill="#98ADD4"/>
<path d="M118.41 265.484L120.232 264.691L120.488 262.203L118.674 262.996L118.41 265.484Z" fill="#926750"/>
<path d="M118.674 262.996L120.487 262.203L121.335 253.911L119.521 254.713L118.674 262.996Z" fill="#98ADD4"/>
<path d="M119.522 254.713L121.335 253.911L121.59 251.424L119.777 252.226L119.522 254.713Z" fill="#926750"/>
<path d="M119.777 252.225L121.59 251.424L122.438 243.14L120.624 243.933L119.777 252.225Z" fill="#98ADD4"/>
<path d="M120.625 243.933L122.438 243.14L122.702 240.643L120.88 241.445L120.625 243.933Z" fill="#926750"/>
<path d="M134.411 272.091L136.234 271.289L120.487 262.203L118.674 262.996L134.411 272.091Z" fill="#C0CDFF"/>
<path d="M134.156 274.579L135.979 273.786L136.234 271.289L134.412 272.091L134.156 274.579Z" fill="#926750"/>
<path d="M118.674 262.997L118.41 265.484L134.157 274.579L134.412 272.091L118.674 262.997Z" fill="#E8EDFF"/>
<path d="M120.88 241.446L122.702 240.644L123.55 232.36L121.736 233.153L120.88 241.446Z" fill="#98ADD4"/>
<path d="M121.736 233.153L123.549 232.36L123.804 229.872L121.991 230.665L121.736 233.153Z" fill="#926750"/>
<path d="M119.777 252.225L119.522 254.713L135.268 263.798L135.524 261.31L119.777 252.225Z" fill="#E8EDFF"/>
<path d="M135.523 261.311L137.337 260.518L121.59 251.424L119.777 252.226L135.523 261.311Z" fill="#C0CDFF"/>
<path d="M135.268 263.798L137.081 263.005L137.337 260.518L135.523 261.31L135.268 263.798Z" fill="#926750"/>
<path d="M121.991 230.665L123.804 229.872L124.652 221.58L122.838 222.382L121.991 230.665Z" fill="#98ADD4"/>
<path d="M122.839 222.381L124.652 221.579L124.907 219.092L123.094 219.894L122.839 222.381Z" fill="#926750"/>
<path d="M120.88 241.445L120.625 243.933L136.371 253.027L136.626 250.54L120.88 241.445Z" fill="#E8EDFF"/>
<path d="M136.626 250.539L138.44 249.738L122.702 240.643L120.88 241.445L136.626 250.539Z" fill="#C0CDFF"/>
<path d="M136.371 253.027L138.184 252.225L138.439 249.738L136.626 250.54L136.371 253.027Z" fill="#926750"/>
<path d="M123.094 219.894L124.907 219.092L125.764 210.808L123.95 211.601L123.094 219.894Z" fill="#98ADD4"/>
<path d="M123.95 211.602L125.764 210.809L126.019 208.312L124.205 209.114L123.95 211.602Z" fill="#926750"/>
<path d="M137.483 242.247L139.296 241.454L139.551 238.957L137.738 239.759L137.483 242.247Z" fill="#926750"/>
<path d="M121.991 230.665L121.736 233.152L137.482 242.247L137.738 239.759L121.991 230.665Z" fill="#E8EDFF"/>
<path d="M137.738 239.76L139.551 238.958L123.804 229.872L121.991 230.665L137.738 239.76Z" fill="#C0CDFF"/>
<path d="M124.205 209.114L126.019 208.312L126.866 200.028L125.053 200.821L124.205 209.114Z" fill="#98ADD4"/>
<path d="M125.053 200.821L126.866 200.028L127.121 197.54L125.308 198.333L125.053 200.821Z" fill="#926750"/>
<path d="M123.094 219.894L122.839 222.382L138.585 231.467L138.84 228.979L123.094 219.894Z" fill="#E8EDFF"/>
<path d="M138.84 228.979L140.654 228.186L124.907 219.092L123.094 219.894L138.84 228.979Z" fill="#C0CDFF"/>
<path d="M138.585 231.467L140.399 230.674L140.654 228.186L138.84 228.979L138.585 231.467Z" fill="#926750"/>
<path d="M125.308 198.333L127.121 197.54L127.978 189.248L126.155 190.05L125.308 198.333Z" fill="#98ADD4"/>
<path d="M126.156 190.05L127.978 189.248L128.233 186.76L126.411 187.562L126.156 190.05Z" fill="#926750"/>
<path d="M139.697 220.695L141.511 219.894L141.766 217.406L139.953 218.208L139.697 220.695Z" fill="#926750"/>
<path d="M124.205 209.113L123.95 211.601L139.697 220.695L139.952 218.208L124.205 209.113Z" fill="#E8EDFF"/>
<path d="M139.952 218.208L141.765 217.406L126.019 208.312L124.205 209.114L139.952 218.208Z" fill="#C0CDFF"/>
<path d="M126.411 187.562L128.233 186.76L129.081 178.477L127.267 179.27L126.411 187.562Z" fill="#98ADD4"/>
<path d="M127.267 179.27L129.081 178.477L129.336 175.98L127.522 176.782L127.267 179.27Z" fill="#926750"/>
<path d="M140.799 209.915L142.613 209.123L142.868 206.635L141.055 207.428L140.799 209.915Z" fill="#926750"/>
<path d="M141.054 207.428L142.868 206.635L127.121 197.54L125.308 198.333L141.054 207.428Z" fill="#C0CDFF"/>
<path d="M125.308 198.333L125.053 200.821L140.799 209.916L141.054 207.428L125.308 198.333Z" fill="#E8EDFF"/>
<path d="M127.523 176.782L129.336 175.98L130.183 167.696L128.37 168.489L127.523 176.782Z" fill="#98ADD4"/>
<path d="M128.37 168.49L130.183 167.697L130.438 165.209L128.625 166.002L128.37 168.49Z" fill="#926750"/>
<path d="M126.411 187.562L126.156 190.05L141.902 199.135L142.158 196.647L126.411 187.562Z" fill="#E8EDFF"/>
<path d="M142.157 196.648L143.98 195.855L128.233 186.76L126.411 187.562L142.157 196.648Z" fill="#C0CDFF"/>
<path d="M141.902 199.135L143.725 198.342L143.98 195.854L142.157 196.647L141.902 199.135Z" fill="#926750"/>
<path d="M128.625 166.001L130.438 165.208L131.295 156.916L129.482 157.718L128.625 166.001Z" fill="#98ADD4"/>
<path d="M129.482 157.718L131.295 156.916L131.55 154.429L129.737 155.23L129.482 157.718Z" fill="#926750"/>
<path d="M127.522 176.782L127.267 179.27L143.014 188.364L143.269 185.876L127.522 176.782Z" fill="#E8EDFF"/>
<path d="M143.014 188.364L144.828 187.562L145.083 185.075L143.269 185.877L143.014 188.364Z" fill="#926750"/>
<path d="M143.269 185.876L145.083 185.074L129.336 175.98L127.523 176.782L143.269 185.876Z" fill="#C0CDFF"/>
<path d="M129.737 155.23L131.55 154.428L132.398 146.145L130.584 146.938L129.737 155.23Z" fill="#98ADD4"/>
<path d="M130.584 146.938L132.398 146.146L132.653 143.649L130.839 144.451L130.584 146.938Z" fill="#926750"/>
<path d="M128.625 166.002L128.37 168.49L144.116 177.584L144.371 175.097L128.625 166.002Z" fill="#E8EDFF"/>
<path d="M144.117 177.584L145.93 176.791L146.185 174.304L144.372 175.097L144.117 177.584Z" fill="#926750"/>
<path d="M144.372 175.096L146.185 174.304L130.438 165.209L128.625 166.002L144.372 175.096Z" fill="#C0CDFF"/>
<path d="M131.532 137.725L133.345 136.933L131.286 135.748L129.472 136.541L131.532 137.725Z" fill="#718CC0"/>
<path d="M130.839 144.45L132.653 143.648L133.345 136.932L131.532 137.725L130.839 144.45Z" fill="#98ADD4"/>
<path d="M129.473 136.541L115.801 272.646L117.563 273.777L118.41 265.485L118.674 262.997L119.522 254.714L119.777 252.226L120.624 243.933L120.88 241.446L121.736 233.153L121.991 230.665L122.839 222.382L123.094 219.894L123.951 211.602L124.206 209.114L125.053 200.822L125.308 198.334L126.156 190.05L126.411 187.563L127.268 179.27L127.523 176.782L128.37 168.49L128.625 166.002L129.482 157.719L129.737 155.231L130.585 146.939L130.84 144.451L131.532 137.726L129.473 136.541Z" fill="#E8EDFF"/>
<path d="M145.483 164.316L147.297 163.523L131.55 154.429L129.737 155.23L145.483 164.316Z" fill="#C0CDFF"/>
<path d="M145.229 166.813L147.042 166.011L147.297 163.523L145.484 164.316L145.229 166.813Z" fill="#926750"/>
<path d="M129.737 155.231L129.482 157.718L145.228 166.813L145.483 164.316L129.737 155.231Z" fill="#E8EDFF"/>
<path d="M146.331 156.032L148.144 155.23L148.399 152.743L146.586 153.545L146.331 156.032Z" fill="#926750"/>
<path d="M130.839 144.45L130.584 146.938L146.331 156.032L146.586 153.544L130.839 144.45Z" fill="#E8EDFF"/>
<path d="M146.586 153.545L148.4 152.743L132.653 143.649L130.839 144.451L146.586 153.545Z" fill="#C0CDFF"/>
<path d="M135.742 283L137.659 282.233L151.143 147.211L149.329 148.004L135.742 283Z" fill="#98ADD4"/>
<path d="M147.279 146.819L133.441 281.466L135.742 283L149.329 148.004L147.279 146.819Z" fill="#E8EDFF"/>
<path d="M149.329 148.004L151.142 147.211L149.092 146.018L147.279 146.82L149.329 148.004Z" fill="#718CC0"/>
<path d="M147.552 164.17C148.709 164.571 150.04 164.534 150.395 163.368C150.915 161.645 151.534 159.814 151.379 159.276C151.124 158.365 150.568 156.633 150.177 156.633C149.83 158.556 150.395 159.468 148.236 159.513C147.853 159.522 147.661 157.599 147.024 157.727C146.386 157.855 146.942 160.105 146.869 160.488C146.832 160.652 146.604 161.226 146.313 162.001C145.903 163.131 146.413 163.778 147.552 164.17Z" fill="#CA795C"/>
<path d="M128.006 151.831C128.078 151.649 128.17 151.275 128.343 151.184L129.837 150.537C130.01 150.446 130.101 150.255 130.074 150.063C130.029 149.799 129.755 149.626 129.5 149.708C128.88 149.899 127.477 150.31 127.176 150.492C125.718 151.348 127.586 152.825 128.006 151.831Z" fill="#CA795C"/>
<path d="M119.322 221.388C119.322 221.388 119.303 223.046 119.249 223.465C119.194 223.885 121.181 224.887 121.818 224.732C123.431 224.331 123.513 224.03 123.513 224.03L123.541 223.52C123.541 223.52 124.516 223.866 125.445 223.62C126.375 223.374 130.02 221.397 129.036 220.012C128.143 218.745 126.147 219.975 123.112 220.003C120.269 220.012 119.586 220.622 119.322 221.388Z" fill="#071F3B"/>
<path d="M123.531 223.73C123.495 223.803 123.23 224.094 121.818 224.45C121.216 224.596 119.449 223.739 119.257 223.274C119.257 223.292 119.257 223.302 119.257 223.311C119.257 223.347 119.248 223.384 119.248 223.411C119.248 223.429 119.248 223.447 119.239 223.456C119.184 223.876 121.171 224.887 121.818 224.723C123.431 224.322 123.513 224.021 123.513 224.021L123.531 223.73Z" fill="#071F3B"/>
<path d="M123.541 223.237C123.541 223.237 124.516 223.584 125.445 223.338C126.238 223.128 128.99 221.67 129.19 220.376C129.409 221.725 126.293 223.392 125.445 223.62C124.516 223.866 123.541 223.52 123.541 223.52V223.237Z" fill="#071F3B"/>
<path d="M122.656 189.603C124.952 189.603 126.429 189.885 126.429 194.287C126.429 201.313 124.87 201.477 125.29 220.021C125.362 223.11 119.558 223.575 119.248 221.333C118.792 218.043 119.002 202.834 119.248 194.925C119.339 192.364 120.36 189.603 122.656 189.603Z" fill="#161616"/>
<path d="M131.295 218.207C131.295 218.207 131.778 219.738 131.86 220.139C131.942 220.54 134.056 220.868 134.603 220.522C135.96 219.665 135.951 219.365 135.951 219.365L135.815 218.882C135.815 218.882 136.817 218.9 137.591 218.399C138.366 217.897 141.118 214.972 139.797 213.997C138.594 213.113 137.127 214.836 134.357 215.774C131.75 216.658 131.313 217.433 131.295 218.207Z" fill="#071F3B"/>
<path d="M135.87 219.091C135.851 219.164 135.706 219.52 134.521 220.267C134.011 220.586 132.133 220.331 131.824 219.966C131.824 219.975 131.833 219.993 131.833 220.003C131.842 220.039 131.851 220.066 131.851 220.094C131.851 220.112 131.86 220.13 131.86 220.139C131.942 220.54 134.065 220.868 134.603 220.522C135.961 219.665 135.952 219.365 135.952 219.365L135.87 219.091Z" fill="#071F3B"/>
<path d="M135.724 218.626C135.724 218.626 136.726 218.645 137.501 218.143C138.166 217.715 140.253 215.537 140.043 214.298C140.654 215.464 138.294 217.943 137.583 218.399C136.808 218.9 135.806 218.882 135.806 218.882L135.724 218.626Z" fill="#071F3B"/>
<path d="M128.598 202.98L131.897 202.761C131.897 202.761 130.967 217.715 131.396 218.708C131.651 219.355 136.972 218.152 136.808 215.045C136.954 209.249 138.64 197.904 137.938 196.692C137.61 196.127 135.87 195.107 135.278 195.034C134.804 194.979 133.655 195.125 132.298 195.362C128.78 195.972 126.894 199.845 128.598 202.98Z" fill="#161616"/>
<path d="M119.613 193.047L119.412 194.068C119.002 196.228 119.321 198.314 121.855 199.736C121.873 199.745 121.882 199.754 121.9 199.763L126.438 202.379C127.842 203.19 129.573 203.19 130.976 202.379C132.38 201.568 133.245 200.073 133.245 198.451V195.836L124.16 190.432L119.613 193.047Z" fill="#161616"/>
<path d="M127.632 170.439C128.425 170.94 129.737 171.651 135.059 175.023C136.763 176.098 135.961 178.239 135.797 180.253C135.733 181.055 133.865 191.17 133.327 194.751C133.072 196.948 131.751 197.54 131.751 197.54C129.409 199.044 127.094 198.397 121.381 195.034C119.449 193.895 119.494 193.129 119.585 192.318C120.478 184.819 122.702 171.952 123.668 170.867C125.463 168.844 127.304 170.238 127.632 170.439Z" fill="#FF732C"/>
<path d="M131.532 169.746C131.677 169.254 127.695 169.4 127.695 169.4L126.893 171.742C126.802 171.988 126.72 172.189 126.72 172.189C126.62 172.517 126.738 172.963 127.121 173.318C127.896 174.038 129.29 174.202 130.256 173.792C131.204 173.391 131.632 173.164 131.687 172.936C131.696 172.936 131.386 170.238 131.532 169.746Z" fill="#CA795C"/>
<path d="M127.204 170.849C127.204 170.849 126.857 171.879 127.678 172.289C129.4 173.145 129.792 172.726 131.614 172.152C131.678 172.134 132.298 172.918 132.252 173.273C132.252 173.273 129.5 175.15 127.404 173.683C125.254 172.307 127.204 170.849 127.204 170.849Z" fill="#E8EDFF"/>
<path d="M123.914 167.715C124.397 168.271 124.861 168.799 125.253 169.246C125.955 170.038 126.857 170.631 127.869 170.941C129.618 171.487 131.523 171.205 133.044 170.175C133.956 169.555 134.338 168.389 133.965 167.35L132.416 163.013C131.796 161.281 130.247 160.06 128.415 159.869L127.987 159.823C126.729 159.696 125.472 160.069 124.488 160.862C122.401 162.575 122.137 165.683 123.914 167.715Z" fill="#CA795C"/>
<path d="M122.374 162.074C123.486 160.716 125.262 159.696 126.329 159.167C126.957 158.857 127.668 158.73 128.37 158.821C129.409 158.948 130.885 159.34 131.705 160.479C131.705 160.479 131.714 160.479 131.714 160.488C132.225 161.035 132.707 160.661 132.707 160.661C133.464 162.438 130.11 165.336 130.11 165.336L130.584 166.63C130.666 166.849 130.548 167.095 130.329 167.159C129.846 167.305 129.144 167.715 129.491 168.79C129.801 169.756 130.52 169.811 131.031 169.701C131.268 169.656 131.459 169.883 131.359 170.102L130.949 171.077C130.949 171.077 128.57 172.927 126.356 171.114C125.226 170.193 123.64 169.373 122.383 167.305C121.417 165.692 120.715 164.115 122.374 162.074Z" fill="#161616"/>
<path d="M134.512 174.686C134.512 174.686 142.139 171.232 142.54 170.786C142.941 170.339 146.04 162.293 146.65 161.026C147.252 159.787 151.48 160.844 150.787 162.648C149.183 166.831 146.942 174.24 145.502 175.242C144.144 176.308 136.499 180.974 135.706 180.937C133.92 180.855 132.17 175.069 134.512 174.686Z" fill="#FF732C"/>
</svg>
